<svg stroke="currentColor" fill="currentColor" stroke-width="0" viewBox="0 0 24 24" xmlns="http://www.w3.org/2000/svg"><path fill="none" d="M0 0h24v24H0z" stroke="none"/><path d="M11 4V2q.1-.9 1-1 1.2 0 1 1v2q0 1-1 1c-1 0-1-.4-1-1m7.4 3 1.4-1.4a1 1 0 1 0-1.4-1.4L17 5.6a1 1 0 1 0 1.4 1.5zm3.6 4h-2q-.9.1-1 1c-.1.9.5 1 1 1h2q1 0 1-1c0-1-.4-1-1-1m-10 8a1 1 0 0 0-1 1v2q.1 1 1 1 1.2 0 1-1v-2q0-.9-1-1M5.6 7 4.2 5.7a1 1 0 1 1 1.4-1.4L7 5.6a1 1 0 0 1-1.4 1.5zM17 17a1 1 0 0 0 0 1.4l1.4 1.4q.7.6 1.4 0a1 1 0 0 0 0-1.4L18.4 17a1 1 0 0 0-1.4 0M2 13h2q1 0 1-1c0-1-.4-1-1-1H2q-.9.1-1 1 0 1.2 1 1m3.6 6.8 1.5-1.4A1 1 0 1 0 5.6 17l-1.4 1.4a1 1 0 0 0 0 1.4q.7.6 1.4 0M12 6a6 6 0 1 0 0 12 6 6 0 0 0 0-12" stroke="none"/></svg>