<svg viewBox="0 0 30 30" xmlns="http://www.w3.org/2000/svg"><path d="M15 4.7a1 1 0 0 0 1-1v-.9a1 1 0 0 0-2 0v1a1 1 0 0 0 1 .9m0 20.6a1 1 0 0 0-1 1v.9a1 1 0 0 0 2 0v-1a1 1 0 0 0-1-.9M27.2 14h-1a1 1 0 0 0 0 2h1a1 1 0 0 0 0-2M3.8 14h-1a1 1 0 0 0 0 2h1a1 1 0 0 0 0-2M23 5.7l-.7.7a1 1 0 1 0 1.3 1.3l.7-.7A1 1 0 0 0 23 5.7M6.4 22.3l-.7.7A1 1 0 1 0 7 24.3l.7-.7a1 1 0 1 0-1.3-1.3m17.2 0a1 1 0 0 0-1.3 1.3l.7.7a1 1 0 0 0 1.3-1.3zM6.4 7.7a1 1 0 0 0 1.3-1.3L7 5.7A1 1 0 0 0 5.7 7zm16.8 8.7a1 1 0 0 0-1-.2q-1 .3-2 .3a6.7 6.7 0 0 1-6.4-8.7 1 1 0 0 0-1.1-1.2 8.6 8.6 0 1 0 10.7 10.7 1 1 0 0 0-.2-1" fill="#000"/></svg>